<?xml version="1.0" encoding="UTF-8" standalone="no"?>
<!-- Created with Inkscape (http://www.inkscape.org/) -->
<svg
   xmlns:dc="http://purl.org/dc/elements/1.1/"
   xmlns:cc="http://web.resource.org/cc/"
   xmlns:rdf="http://www.w3.org/1999/02/22-rdf-syntax-ns#"
   xmlns:svg="http://www.w3.org/2000/svg"
   xmlns="http://www.w3.org/2000/svg"
   xmlns:sodipodi="http://sodipodi.sourceforge.net/DTD/sodipodi-0.dtd"
   xmlns:inkscape="http://www.inkscape.org/namespaces/inkscape"
   width="1052.3622"
   height="744.09448"
   id="svg2"
   sodipodi:version="0.32"
   inkscape:version="0.45.1"
   version="1.0"
   sodipodi:docbase="E:\Dib"
   sodipodi:docname="Dib.svg"
   inkscape:output_extension="org.inkscape.output.svg.inkscape"
   inkscape:export-filename="E:\Dib\Dib.png"
   inkscape:export-xdpi="90"
   inkscape:export-ydpi="90">
  <defs
     id="defs4" />
  <sodipodi:namedview
     id="base"
     pagecolor="#ffffff"
     bordercolor="#666666"
     borderopacity="1.0"
     inkscape:pageopacity="0"
     inkscape:pageshadow="2"
     inkscape:zoom="1.4416548"
     inkscape:cx="633.10294"
     inkscape:cy="295.31858"
     inkscape:document-units="px"
     inkscape:current-layer="layer1"
     width="1052.3622px"
     height="744.09448px"
     inkscape:window-width="1600"
     inkscape:window-height="1120"
     inkscape:window-x="-8"
     inkscape:window-y="-8" />
  <metadata
     id="metadata7">
    <rdf:RDF>
      <cc:Work
         rdf:about="">
        <dc:format>image/svg+xml</dc:format>
        <dc:type
           rdf:resource="http://purl.org/dc/dcmitype/StillImage" />
      </cc:Work>
    </rdf:RDF>
  </metadata>
  <g
     inkscape:label="Ebene 1"
     inkscape:groupmode="layer"
     id="layer1">
    <path
       sodipodi:type="inkscape:offset"
       inkscape:radius="4.0819879"
       inkscape:original="M 561.78125 194.8125 C 500.59758 194.22014 433.7231 209.91264 396.4375 280.875 C 429.03571 249.92437 466.37219 229.41675 513.21875 229.8125 C 516.38806 258.02017 517.79603 290.64459 517.15625 328.375 C 527.03718 275.27977 543.68601 236.83631 561.78125 194.8125 z M 601.65625 258.1875 C 578.22894 258.61945 552.51754 265.60064 535.34375 273.03125 C 528.76271 294.66712 525.31014 310.83821 522.5 325.875 C 555.69716 311.26597 598.19121 298.4416 638.9375 295.15625 C 624.75545 287.81173 608.24713 283.23905 592.15625 283.03125 C 601.62384 273.57027 612.61344 267.76076 623.9375 260.15625 C 617.03367 258.62371 609.46535 258.04352 601.65625 258.1875 z M 429.28125 258.75 C 426.71364 260.05952 424.15729 261.34673 422.5 262.65625 C 430.65276 266.64633 438.03163 271.41926 444.28125 277.3125 C 438.49076 282.60158 390.92306 289.98951 386.78125 300.875 C 427.92973 302.42303 469.34165 308.22177 511.4375 325.875 C 512.91603 313.04868 512.91212 295.81077 512.5 277.3125 C 480.2033 261.51868 455.02598 259.56788 429.28125 258.75 z M 622.84375 300.53125 C 587.11492 305.43659 552.38668 316.80807 518.5625 334.09375 C 480.83811 315.94376 440.45636 308.50344 398.9375 305.53125 C 395.8253 309.06874 392.88733 312.95026 390.71875 318.375 C 394.96487 343.6131 399.9143 368.85566 406.0625 394.09375 C 395.18921 393.25043 385.49762 392.71034 382.15625 393.75 C 384.16553 411.0508 385.56611 427.98193 392.15625 448.03125 C 399.25065 448.39054 406.73473 447.73981 415.71875 443.375 C 418.21875 450.04168 420.71875 456.70833 423.21875 463.375 C 457.41515 474.34634 484.07528 488.7262 507.84375 504.4375 C 511.46903 505.37854 514.8235 505.76901 517.5 504.8125 C 542.02663 490.49085 569.4826 480.06311 596.78125 469.4375 C 604.28126 462.53273 611.78125 455.65476 619.28125 448.75 C 626.18511 450.0986 632.01171 450.70969 636.0625 450.15625 C 641.26209 431.22767 644.42612 412.30357 646.78125 393.375 C 638.6731 393.38147 626.42878 395.47386 614.65625 397.3125 C 622.48365 369.98363 629.18568 342.3712 633.21875 314.09375 C 630.59752 309.98552 627.36351 305.58875 622.84375 300.53125 z "
       style="fill:#000000;fill-rule:evenodd;stroke:#000000;stroke-width:0;stroke-linecap:butt;stroke-linejoin:miter;stroke-opacity:0;stroke-miterlimit:4;stroke-dasharray:none"
       id="path3242"
       d="M 561.8125,190.71875 C 499.90216,190.11935 430.91763,206.44665 392.8125,278.96875 C 391.84371,280.74307 392.31939,282.95921 393.931,284.17965 C 395.54261,285.40009 397.80473,285.25724 399.25,283.84375 C 406.05234,277.38522 413.09522,271.53584 420.3125,266.125 C 420.44439,266.19488 420.58001,266.25747 420.71875,266.3125 C 426.60079,269.19125 432.00053,272.49575 436.8125,276.28125 C 435.41462,276.77012 434.0594,277.23675 432.25,277.78125 C 427.01541,279.35647 420.38625,281.13887 413.75,283.09375 C 407.11375,285.04863 400.49284,287.17106 395.03125,289.625 C 389.56966,292.07894 384.87315,294.43236 382.96875,299.4375 C 382.50129,300.66588 382.65384,302.0442 383.3786,303.14063 C 384.10336,304.23706 385.31168,304.91749 386.625,304.96875 C 389.05968,305.06034 391.50279,305.22075 393.9375,305.34375 C 391.36163,308.532 388.84353,312.10703 386.9375,316.875 C 386.6554,317.56751 386.56892,318.3242 386.6875,319.0625 C 390.64493,342.58469 395.32217,366.1248 400.90625,389.6875 C 397.61616,389.46624 394.15793,389.19739 391.40625,389.125 C 387.07019,389.01093 383.86868,388.93172 380.9375,389.84375 C 379.05966,390.42692 377.86435,392.26587 378.09375,394.21875 C 380.0929,411.43233 381.53181,428.77854 388.28125,449.3125 C 388.81327,450.90241 390.26327,452.00539 391.9375,452.09375 C 398.32117,452.41705 405.45612,451.77647 413.375,448.71875 C 415.38656,454.08291 417.39469,459.44834 419.40625,464.8125 C 419.84588,465.97202 420.78871,466.86886 421.96875,467.25 C 455.76486,478.09291 482.04083,492.27493 505.59375,507.84375 C 505.96824,508.08624 506.37995,508.2657 506.8125,508.375 C 510.76471,509.4009 514.84919,510.09497 518.875,508.65625 C 519.11333,508.57355 519.34348,508.46893 519.5625,508.34375 C 543.68868,494.25593 570.93045,483.88375 598.25,473.25 C 598.7241,473.0616 599.15869,472.78601 599.53125,472.4375 C 606.55,465.9758 613.56823,459.52745 620.59375,453.0625 C 626.73872,454.17072 632.18309,454.79438 636.625,454.1875 C 638.23419,453.96692 639.55953,452.81338 640,451.25 C 645.27163,432.05918 648.47447,412.91729 650.84375,393.875 C 650.99081,392.71027 650.62932,391.53861 649.85161,390.65919 C 649.07389,389.77977 647.95522,389.27772 646.78125,389.28125 C 639.5499,389.28702 629.9533,390.78006 620.28125,392.3125 C 627.3965,366.86024 633.48195,341.07552 637.25,314.65625 C 637.38417,313.69819 637.17375,312.72361 636.65625,311.90625 C 634.41173,308.38844 631.53643,304.55098 628.0625,300.4375 C 631.80577,299.98138 635.53276,299.51847 639.25,299.21875 C 641.06283,299.07264 642.56038,297.74495 642.92263,295.96268 C 643.28488,294.18041 642.42445,292.37345 640.8125,291.53125 C 628.97385,285.40031 615.62526,281.26682 602.09375,279.71875 C 609.40473,273.99821 617.57721,269.33435 626.21875,263.53125 C 627.57489,262.61872 628.25598,260.98525 627.94982,259.3796 C 627.64366,257.77396 626.40928,256.50572 624.8125,256.15625 C 617.50531,254.53417 609.65353,253.94515 601.59375,254.09375 C 578.82673,254.51353 554.68612,260.87982 537.15625,268 C 545.48404,243.16989 555.20648,220.41542 565.53125,196.4375 C 566.08199,195.17876 565.96262,193.72741 565.21361,192.57557 C 564.4646,191.42374 563.18643,190.72593 561.8125,190.71875 L 561.8125,190.71875 z M 509.5,234.09375 C 510.7736,246.17266 511.75981,259.02421 512.375,272.78125 C 483.36355,258.9687 459.65578,256.05774 436.59375,255.03125 C 458.26398,242.11224 482.21511,234.5316 509.5,234.09375 z " />
    <path
       id="path2170"
       style="fill:#0e0f10;fill-rule:evenodd;stroke:#000000;stroke-width:0;stroke-linecap:butt;stroke-linejoin:miter;stroke-opacity:0;fill-opacity:1;stroke-miterlimit:4;stroke-dasharray:none"
       d="M 396.42857,280.8802 C 429.02677,249.92956 466.36773,229.41302 513.21429,229.80877 C 516.3836,258.01645 517.78264,290.64979 517.14286,328.3802 C 527.02381,275.28496 543.69048,236.83258 561.78572,194.80877 C 500.60204,194.21642 433.71417,209.91784 396.42857,280.8802 z M 386.78571,300.8802 C 427.93419,302.42822 469.33272,308.22697 511.42857,325.8802 C 512.90709,313.05387 512.91212,295.80704 512.5,277.30877 C 480.2033,261.51496 455.03045,259.55522 429.28572,258.73734 C 426.7181,260.04686 424.15729,261.35639 422.5,262.66591 C 430.65276,266.656 438.03609,271.41553 444.28571,277.30877 C 438.49522,282.59786 390.92752,289.99471 386.78571,300.8802 z M 522.5,325.8802 C 525.31014,310.8434 528.7761,294.65892 535.35714,273.02305 C 558.2555,263.11556 596.31326,254.03576 623.92857,260.16591 C 612.60453,267.77043 601.61045,273.56207 592.14286,283.02305 C 608.23376,283.23084 624.74652,287.82139 638.92857,295.16591 C 598.1823,298.45127 555.69716,311.27117 522.5,325.8802 z " />
    <path
       style="fill:#555577;fill-rule:evenodd;stroke:#000000;stroke-width:0;stroke-linecap:butt;stroke-linejoin:miter;stroke-opacity:0;fill-opacity:1;stroke-miterlimit:4;stroke-dasharray:none"
       d="M 556.03125 194.8125 C 536.77849 194.95776 517.07149 196.82162 498 201.59375 C 526.49179 200.87485 543.58394 201.23996 545.71875 203.03125 C 549.38156 205.81353 531.73332 249.64033 530.40625 275.28125 C 539.37602 246.79159 550.28387 221.51366 561.78125 194.8125 C 559.86926 194.79399 557.9533 194.798 556.03125 194.8125 z M 601.65625 258.1875 C 598.44998 258.24662 595.20125 258.4617 591.9375 258.75 C 597.96817 259.12039 603.50931 260.22144 608.21875 262.65625 C 597.06997 270.39434 586.86145 278.1369 578.5625 285.875 C 598.83309 288.05215 617.16526 291.01289 630.6875 295.96875 C 633.44304 295.66351 636.19435 295.37743 638.9375 295.15625 C 624.75545 287.81173 608.24713 283.23905 592.15625 283.03125 C 601.62384 273.57027 612.61344 267.76076 623.9375 260.15625 C 617.03367 258.62371 609.46535 258.04352 601.65625 258.1875 z "
       id="path3169" />
    <path
       style="fill:#bbbbdd;fill-rule:evenodd;stroke:#000000;stroke-width:0;stroke-linecap:butt;stroke-linejoin:miter;stroke-opacity:0;fill-opacity:1;stroke-miterlimit:4;stroke-dasharray:none"
       d="M 518.57143,334.09448 C 480.84702,315.94449 440.44743,308.49524 398.92857,305.52305 C 395.81636,309.06053 392.88287,312.95546 390.71429,318.3802 C 394.96041,343.61829 399.92323,368.85639 406.07143,394.09448 C 395.19815,393.25116 385.48423,392.69768 382.14286,393.73734 C 384.15213,411.03814 385.55272,427.97373 392.14286,448.02305 C 399.23725,448.38233 406.73027,447.74501 415.71429,443.3802 C 418.21429,450.04687 420.71429,456.71353 423.21429,463.3802 C 457.41069,474.35153 484.08867,488.74032 507.85714,504.45162 C 511.48243,505.39267 514.8235,505.76528 517.5,504.80877 C 542.02663,490.48713 569.48707,480.07723 596.78572,469.45162 C 604.28572,462.54686 611.78572,455.6421 619.28572,448.73734 C 626.18957,450.08594 632.02064,450.71935 636.07143,450.16591 C 641.271,431.23734 644.43059,412.30877 646.78572,393.3802 C 638.67756,393.38666 626.41539,395.47013 614.64286,397.30877 C 622.47028,369.97991 629.18122,342.37193 633.21429,314.09448 C 630.59306,309.98625 627.3769,305.58055 622.85714,300.52305 C 587.12829,305.42838 552.39561,316.8088 518.57143,334.09448 z "
       id="path3177"
       sodipodi:nodetypes="cccccccccccccccccc" />
    <path
       style="fill:#222255;fill-rule:evenodd;stroke:#000000;stroke-width:0;stroke-linecap:butt;stroke-linejoin:miter;stroke-opacity:0;fill-opacity:1;stroke-miterlimit:4;stroke-dasharray:none"
       d="M 398.9375 305.53125 C 395.8253 309.06874 392.88733 312.95026 390.71875 318.375 C 394.96487 343.6131 399.9143 368.85566 406.0625 394.09375 C 395.18921 393.25043 385.49762 392.71034 382.15625 393.75 C 384.16553 411.0508 385.56611 427.98193 392.15625 448.03125 C 399.25065 448.39054 406.73473 447.73981 415.71875 443.375 C 418.21875 450.04168 420.71875 456.70833 423.21875 463.375 C 453.24666 473.00895 477.47712 485.29559 499.03125 498.78125 C 488.48574 489.37937 476.05157 479.85792 459.1875 471.03125 C 450.60156 466.53735 446.98975 460.96164 451.375 461.65625 C 469.09799 464.46352 477.2055 462.16434 481.8125 458.03125 C 467.06195 436.85989 452.31304 415.67137 437.5625 394.5 C 432.0288 391.84323 425.76008 341.15309 426.90625 334.125 C 427.38431 331.19371 438.49626 320.59876 446.15625 319.53125 C 456.7779 318.05099 476.67027 320.5882 496.65625 324.8125 C 465.36466 313.25945 432.51641 307.93505 398.9375 305.53125 z "
       id="path3214" />
    <path
       id="path3196"
       style="fill:#eeeeff;fill-rule:evenodd;stroke:#000000;stroke-width:0;stroke-linecap:butt;stroke-linejoin:miter;stroke-opacity:0;fill-opacity:1;stroke-miterlimit:4;stroke-dasharray:none"
       d="M 628.40625,307.59375 C 614.17116,308.01543 604.99137,309.80446 598.40625,312.3125 C 600.28497,336.92537 594.82983,355.06561 588.75,372.65625 L 620.15625,377.25 C 625.59209,356.46742 630.16954,335.47299 633.21875,314.09375 C 631.89513,312.01926 630.40575,309.86556 628.6875,307.59375 C 628.59784,307.59629 628.49551,307.59111 628.40625,307.59375 z M 564.15625,475.03125 C 563.17897,475.07622 562.20743,475.32905 561.25,475.875 C 551.28389,481.55802 541.60407,488.71211 531.6875,497.09375 C 544.89054,490.37272 558.71786,484.49056 572.75,478.875 C 570.43565,476.95642 567.31609,474.88585 564.15625,475.03125 z M 646.78125,393.375 C 639.7256,393.38063 629.5369,394.97251 619.25,396.59375 L 619.25,448.78125 C 619.26083,448.77128 619.27042,448.75997 619.28125,448.75 C 626.18511,450.0986 632.01171,450.70969 636.0625,450.15625 C 641.26209,431.22767 644.42612,412.30357 646.78125,393.375 z " />
    <path
       style="fill:#000000;fill-rule:evenodd;stroke:#000000;stroke-width:0;stroke-linecap:butt;stroke-linejoin:miter;stroke-opacity:0;fill-opacity:1;stroke-miterlimit:4;stroke-dasharray:none"
       d="M 586.4375 360.15625 C 559.01384 360.49879 528.68583 384.50438 527.15625 421.9375 C 526.97147 426.45936 527.3507 430.90807 528.3125 435.15625 L 501.34375 435.15625 C 501.17789 433.72976 500.83347 432.27698 500.34375 430.78125 C 500.72867 428.30928 503.05875 427.67904 504.65625 431.0625 C 505.4237 432.68789 506.54603 431.26449 506.25 429.28125 C 505.4746 424.08641 503.28706 419.62568 500 412.84375 C 498.92028 410.61605 498.80277 414.44194 499.46875 416.0625 C 500.58847 418.78717 501.33196 420.69187 501.96875 423.5625 C 502.55725 426.2155 500.48613 427.02421 498.3125 426 C 489.34297 409.21545 461.69921 390.94832 419.65625 389.8125 C 408.69948 389.50686 388.50288 393.13509 386.78125 411.59375 C 384.81479 432.6775 411.66641 455.62188 465.34375 461.25 C 486.38049 463.4705 499.87948 448.40647 501.3125 438.375 L 529.15625 438.375 C 534.59954 456.34451 550.81421 470.26275 577.84375 471.59375 C 615.57709 473.43424 639.25289 445.4034 640.71875 412.65625 C 641.95256 385.09285 619.57645 359.74678 586.4375 360.15625 z M 516.34375 458.6875 C 510.53144 458.80397 504.67819 459.34832 504.8125 460.15625 C 505.13183 462.07726 512.93222 467.07488 513.5625 465.34375 C 514.19926 463.59485 508.12224 461.94458 508.9375 461.40625 C 510.00998 460.69807 522.39848 460.40131 523.21875 461.40625 C 523.83524 462.16153 517.81376 463.95609 518.5625 465.34375 C 519.34148 466.78743 527.09306 461.92621 527.6875 459.8125 C 527.9453 458.89581 522.15606 458.57103 516.34375 458.6875 z "
       id="path3183" />
    <path
       id="path3181"
       style="fill:#555577;fill-rule:evenodd;stroke:#000000;stroke-width:0;stroke-linecap:butt;stroke-linejoin:miter;stroke-opacity:0;fill-opacity:1;stroke-miterlimit:4;stroke-dasharray:none"
       d="M 579.64286,467.66591 C 609.73318,471.08947 634.37489,444.78705 637.14286,412.66591 C 639.34954,387.05822 613.36854,361.38506 586.42857,363.3802 C 560.00888,365.31121 532.38366,385.76655 531.42857,421.95162 C 530.80885,445.43069 546.5082,463.89597 579.64286,467.66591 z M 419.64286,393.02305 C 410.48577,392.18912 391.67075,393.88124 389.64286,412.30877 C 387.67639,430.17823 417.04248,455.98968 465,456.95162 C 479.7795,457.24807 497.71241,448.88011 496.78572,435.8802 C 495.5412,418.42173 467.24973,397.35857 419.64286,393.02305 z " />
    <path
       style="fill:#bbbbdd;fill-rule:evenodd;stroke:#000000;stroke-width:0;stroke-linecap:butt;stroke-linejoin:miter;stroke-opacity:0;fill-opacity:1;stroke-miterlimit:4;stroke-dasharray:none"
       d="M 588.9375 363.28125 C 588.09833 363.2904 587.27937 363.31265 586.4375 363.375 C 569.00542 364.64911 551.06813 373.99312 540.59375 390.59375 C 537.85806 396.72174 535.88445 403.55287 535.96875 412.46875 C 536.21798 438.82607 558.72215 463.13647 590.375 462.4375 C 599.53703 462.23518 606.10468 461.37595 611.375 459.53125 C 625.62462 449.69667 635.46699 432.25942 637.15625 412.65625 C 639.29395 387.84879 614.95177 362.99745 588.9375 363.28125 z M 418.90625 392.96875 C 406.21689 397.70956 398.99736 406.35281 398.78125 415.0625 C 398.3831 430.68173 427.37573 450.53202 456.5625 456.53125 C 459.30433 456.76095 462.12146 456.87976 465 456.9375 C 479.7795 457.23394 497.70794 448.87491 496.78125 435.875 C 495.53674 418.41654 467.26312 397.36677 419.65625 393.03125 C 419.4232 393.01003 419.15138 392.98647 418.90625 392.96875 z "
       id="path3206" />
  </g>
</svg>
